<svg width="18" height="18" viewBox="0 0 18 18" fill="none" xmlns="http://www.w3.org/2000/svg">
<path fill-rule="evenodd" clip-rule="evenodd" d="M1 0H7C7.55228 0 8 0.447715 8 1V5C8 5.55228 7.55228 6 7 6H1C0.447715 6 0 5.55228 0 5V1C0 0.447715 0.447715 0 1 0ZM2 4H6V2H2V4ZM7 8H1C0.447715 8 0 8.44771 0 9V17C0 17.5523 0.447715 18 1 18H7C7.55228 18 8 17.5523 8 17V9C8 8.44771 7.55228 8 7 8ZM2 16H6V10H2V16ZM17 12H11C10.4477 12 10 12.4477 10 13V17C10 17.5523 10.4477 18 11 18H17C17.5523 18 18 17.5523 18 17V13C18 12.4477 17.5523 12 17 12ZM12 16H16V14H12V16ZM17 0H11C10.4477 0 10 0.447715 10 1V9C10 9.55229 10.4477 10 11 10H17C17.5523 10 18 9.55229 18 9V1C18 0.447715 17.5523 0 17 0ZM12 8H16V2H12V8Z" fill="#B82569"/>
</svg>
