<svg width="40" height="40" viewBox="0 0 40 40" fill="none" xmlns="http://www.w3.org/2000/svg">
<circle cx="20" cy="20" r="19.15" fill="#ECF0F3" stroke="#66788A" stroke-width="0.3"/>
<mask id="mask0" mask-type="alpha" maskUnits="userSpaceOnUse" x="12" y="10" width="17" height="20">
<path fill-rule="evenodd" clip-rule="evenodd" d="M26.007 23.5068V18.5042C26.007 15.4327 24.3762 12.8614 21.5048 12.1811V11.5007C21.5048 10.6703 20.8344 10 20.004 10C19.1736 10 18.5033 10.6703 18.5033 11.5007V12.1811C15.6418 12.8614 14.001 15.4227 14.001 18.5042V23.5068L12 25.5077V26.5082H28.008V25.5077L26.007 23.5068ZM20.004 29.5098C21.1045 29.5098 22.005 28.6093 22.005 27.5088H18.003C18.003 28.6093 18.9034 29.5098 20.004 29.5098ZM16.002 24.5072H24.006V18.5042C24.006 16.023 22.4952 14.002 20.004 14.002C17.5128 14.002 16.002 16.023 16.002 18.5042V24.5072Z" fill="white"/>
</mask>
<g mask="url(#mask0)">
<rect x="7.62134" y="7.50476" width="24" height="24" fill="#7E8B99"/>
</g>
</svg>
